<svg xmlns="http://www.w3.org/2000/svg" width="1200" height="630" viewBox="0 0 1200 630"><rect width="1200" height="630" fill="#ffffff"/><text x="600" y="64" text-anchor="middle" font-family="'Montserrat', 'DejaVu Sans', Helvetica, Arial, sans-serif" font-size="16" font-weight="500" fill="#156988" letter-spacing="6">HOTEL LBI</text><text x="600" y="120" text-anchor="middle" font-family="'Prata', 'DejaVu Serif', Georgia, serif" font-size="52" fill="#404040">Long Beach Island Forecast</text><text x="600" y="150" text-anchor="middle" font-family="'Montserrat', 'DejaVu Sans', Helvetica, Arial, sans-serif" font-size="15" fill="#6a6a6a" letter-spacing="1.2">Updated 3:58 PM · Ship Bottom, NJ</text><line x1="60" y1="180" x2="1140" y2="180" stroke="#e6e6e6" stroke-width="1"/><line x1="60" y1="210" x2="1140" y2="210" stroke="#156988" stroke-width="3"/><text x="120" y="320" font-family="'Prata', 'DejaVu Serif', Georgia, serif" font-size="140" fill="#404040">53</text><text x="320" y="240" font-family="'Prata', 'DejaVu Serif', Georgia, serif" font-size="44" fill="#156988">°F</text><text x="120" y="358" font-family="'Montserrat', 'DejaVu Sans', Helvetica, Arial, sans-serif" font-size="18" font-weight="500" fill="#156988" letter-spacing="4">OVERCAST</text><g transform="translate(960,220) scale(2.03125)"><path d="M20 42 Q10 42 10 33 Q10 24 20 24 Q22 14 33 14 Q45 14 46 26 Q55 27 55 35 Q55 42 46 42 Z" fill="#156988" opacity="0.12"/><path d="M20 42 Q10 42 10 33 Q10 24 20 24 Q22 14 33 14 Q45 14 46 26 Q55 27 55 35 Q55 42 46 42 Z" fill="none" stroke="#156988" stroke-width="2" stroke-linejoin="round"/></g><line x1="60" y1="350" x2="1140" y2="350" stroke="#e6e6e6" stroke-width="1"/><text x="150" y="380" text-anchor="middle" font-family="'Montserrat', 'DejaVu Sans', Helvetica, Arial, sans-serif" font-size="13" font-weight="500" fill="#6a6a6a" letter-spacing="3">FEELS LIKE</text><text x="150" y="420" text-anchor="middle" font-family="'Prata', 'DejaVu Serif', Georgia, serif" font-size="28" fill="#404040">49°</text><text x="330" y="380" text-anchor="middle" font-family="'Montserrat', 'DejaVu Sans', Helvetica, Arial, sans-serif" font-size="13" font-weight="500" fill="#6a6a6a" letter-spacing="3">HUMIDITY</text><text x="330" y="420" text-anchor="middle" font-family="'Prata', 'DejaVu Serif', Georgia, serif" font-size="28" fill="#404040">76%</text><text x="510" y="380" text-anchor="middle" font-family="'Montserrat', 'DejaVu Sans', Helvetica, Arial, sans-serif" font-size="13" font-weight="500" fill="#6a6a6a" letter-spacing="3">WIND</text><text x="510" y="420" text-anchor="middle" font-family="'Prata', 'DejaVu Serif', Georgia, serif" font-size="28" fill="#404040">9 mph</text><text x="690" y="380" text-anchor="middle" font-family="'Montserrat', 'DejaVu Sans', Helvetica, Arial, sans-serif" font-size="13" font-weight="500" fill="#6a6a6a" letter-spacing="3">UV INDEX</text><text x="690" y="420" text-anchor="middle" font-family="'Prata', 'DejaVu Serif', Georgia, serif" font-size="28" fill="#404040">1.0</text><text x="870" y="380" text-anchor="middle" font-family="'Montserrat', 'DejaVu Sans', Helvetica, Arial, sans-serif" font-size="13" font-weight="500" fill="#6a6a6a" letter-spacing="3">SUNRISE</text><text x="870" y="420" text-anchor="middle" font-family="'Prata', 'DejaVu Serif', Georgia, serif" font-size="28" fill="#404040">5:50 AM</text><text x="1050" y="380" text-anchor="middle" font-family="'Montserrat', 'DejaVu Sans', Helvetica, Arial, sans-serif" font-size="13" font-weight="500" fill="#6a6a6a" letter-spacing="3">SUNSET</text><text x="1050" y="420" text-anchor="middle" font-family="'Prata', 'DejaVu Serif', Georgia, serif" font-size="28" fill="#404040">7:56 PM</text><text x="600" y="500" text-anchor="middle" font-family="'Montserrat', 'DejaVu Sans', Helvetica, Arial, sans-serif" font-size="13" font-weight="500" fill="#156988" letter-spacing="4">SEVEN DAY OUTLOOK</text><text x="137.14285714285714" y="538" text-anchor="middle" font-family="'Montserrat', 'DejaVu Sans', Helvetica, Arial, sans-serif" font-size="14" font-weight="500" fill="#6a6a6a" letter-spacing="2.4">THU</text><g transform="translate(115.14285714285714,548) scale(0.6875)"><path d="M20 42 Q10 42 10 33 Q10 24 20 24 Q22 14 33 14 Q45 14 46 26 Q55 27 55 35 Q55 42 46 42 Z" fill="#156988" opacity="0.12"/><path d="M20 42 Q10 42 10 33 Q10 24 20 24 Q22 14 33 14 Q45 14 46 26 Q55 27 55 35 Q55 42 46 42 Z" fill="none" stroke="#156988" stroke-width="2" stroke-linejoin="round"/><g stroke="#2C95B3" stroke-width="2" stroke-linecap="round"><line x1="22" y1="48" x2="19" y2="56"/><line x1="32" y1="48" x2="29" y2="56"/><line x1="42" y1="48" x2="39" y2="56"/></g></g><text x="137.14285714285714" y="612" text-anchor="middle" font-family="'Prata', 'DejaVu Serif', Georgia, serif" font-size="22" fill="#404040">58°</text><text x="291.42857142857144" y="538" text-anchor="middle" font-family="'Montserrat', 'DejaVu Sans', Helvetica, Arial, sans-serif" font-size="14" font-weight="500" fill="#6a6a6a" letter-spacing="2.4">FRI</text><g transform="translate(269.42857142857144,548) scale(0.6875)"><path d="M20 42 Q10 42 10 33 Q10 24 20 24 Q22 14 33 14 Q45 14 46 26 Q55 27 55 35 Q55 42 46 42 Z" fill="#156988" opacity="0.12"/><path d="M20 42 Q10 42 10 33 Q10 24 20 24 Q22 14 33 14 Q45 14 46 26 Q55 27 55 35 Q55 42 46 42 Z" fill="none" stroke="#156988" stroke-width="2" stroke-linejoin="round"/></g><text x="291.42857142857144" y="612" text-anchor="middle" font-family="'Prata', 'DejaVu Serif', Georgia, serif" font-size="22" fill="#404040">55°</text><text x="445.71428571428567" y="538" text-anchor="middle" font-family="'Montserrat', 'DejaVu Sans', Helvetica, Arial, sans-serif" font-size="14" font-weight="500" fill="#6a6a6a" letter-spacing="2.4">SAT</text><g transform="translate(423.71428571428567,548) scale(0.6875)"><path d="M20 42 Q10 42 10 33 Q10 24 20 24 Q22 14 33 14 Q45 14 46 26 Q55 27 55 35 Q55 42 46 42 Z" fill="#156988" opacity="0.12"/><path d="M20 42 Q10 42 10 33 Q10 24 20 24 Q22 14 33 14 Q45 14 46 26 Q55 27 55 35 Q55 42 46 42 Z" fill="none" stroke="#156988" stroke-width="2" stroke-linejoin="round"/><g stroke="#2C95B3" stroke-width="2" stroke-linecap="round"><line x1="22" y1="48" x2="19" y2="56"/><line x1="32" y1="48" x2="29" y2="56"/><line x1="42" y1="48" x2="39" y2="56"/></g></g><text x="445.71428571428567" y="612" text-anchor="middle" font-family="'Prata', 'DejaVu Serif', Georgia, serif" font-size="22" fill="#404040">59°</text><text x="600" y="538" text-anchor="middle" font-family="'Montserrat', 'DejaVu Sans', Helvetica, Arial, sans-serif" font-size="14" font-weight="500" fill="#6a6a6a" letter-spacing="2.4">SUN</text><g transform="translate(578,548) scale(0.6875)"><path d="M20 42 Q10 42 10 33 Q10 24 20 24 Q22 14 33 14 Q45 14 46 26 Q55 27 55 35 Q55 42 46 42 Z" fill="#156988" opacity="0.12"/><path d="M20 42 Q10 42 10 33 Q10 24 20 24 Q22 14 33 14 Q45 14 46 26 Q55 27 55 35 Q55 42 46 42 Z" fill="none" stroke="#156988" stroke-width="2" stroke-linejoin="round"/></g><text x="600" y="612" text-anchor="middle" font-family="'Prata', 'DejaVu Serif', Georgia, serif" font-size="22" fill="#404040">65°</text><text x="754.2857142857142" y="538" text-anchor="middle" font-family="'Montserrat', 'DejaVu Sans', Helvetica, Arial, sans-serif" font-size="14" font-weight="500" fill="#6a6a6a" letter-spacing="2.4">MON</text><g transform="translate(732.2857142857142,548) scale(0.6875)"><path d="M20 42 Q10 42 10 33 Q10 24 20 24 Q22 14 33 14 Q45 14 46 26 Q55 27 55 35 Q55 42 46 42 Z" fill="#156988" opacity="0.12"/><path d="M20 42 Q10 42 10 33 Q10 24 20 24 Q22 14 33 14 Q45 14 46 26 Q55 27 55 35 Q55 42 46 42 Z" fill="none" stroke="#156988" stroke-width="2" stroke-linejoin="round"/><g stroke="#2C95B3" stroke-width="2" stroke-linecap="round"><line x1="22" y1="48" x2="19" y2="56"/><line x1="32" y1="48" x2="29" y2="56"/><line x1="42" y1="48" x2="39" y2="56"/></g></g><text x="754.2857142857142" y="612" text-anchor="middle" font-family="'Prata', 'DejaVu Serif', Georgia, serif" font-size="22" fill="#404040">59°</text><text x="908.5714285714284" y="538" text-anchor="middle" font-family="'Montserrat', 'DejaVu Sans', Helvetica, Arial, sans-serif" font-size="14" font-weight="500" fill="#6a6a6a" letter-spacing="2.4">TUE</text><g transform="translate(886.5714285714284,548) scale(0.6875)"><path d="M20 42 Q10 42 10 33 Q10 24 20 24 Q22 14 33 14 Q45 14 46 26 Q55 27 55 35 Q55 42 46 42 Z" fill="#156988" opacity="0.12"/><path d="M20 42 Q10 42 10 33 Q10 24 20 24 Q22 14 33 14 Q45 14 46 26 Q55 27 55 35 Q55 42 46 42 Z" fill="none" stroke="#156988" stroke-width="2" stroke-linejoin="round"/></g><text x="908.5714285714284" y="612" text-anchor="middle" font-family="'Prata', 'DejaVu Serif', Georgia, serif" font-size="22" fill="#404040">60°</text><text x="1062.857142857143" y="538" text-anchor="middle" font-family="'Montserrat', 'DejaVu Sans', Helvetica, Arial, sans-serif" font-size="14" font-weight="500" fill="#6a6a6a" letter-spacing="2.4">WED</text><g transform="translate(1040.857142857143,548) scale(0.6875)"><path d="M20 42 Q10 42 10 33 Q10 24 20 24 Q22 14 33 14 Q45 14 46 26 Q55 27 55 35 Q55 42 46 42 Z" fill="#156988" opacity="0.12"/><path d="M20 42 Q10 42 10 33 Q10 24 20 24 Q22 14 33 14 Q45 14 46 26 Q55 27 55 35 Q55 42 46 42 Z" fill="none" stroke="#156988" stroke-width="2" stroke-linejoin="round"/><g stroke="#2C95B3" stroke-width="2" stroke-linecap="round"><line x1="22" y1="48" x2="19" y2="56"/><line x1="32" y1="48" x2="29" y2="56"/><line x1="42" y1="48" x2="39" y2="56"/></g></g><text x="1062.857142857143" y="612" text-anchor="middle" font-family="'Prata', 'DejaVu Serif', Georgia, serif" font-size="22" fill="#404040">57°</text></svg>