<svg xmlns="http://www.w3.org/2000/svg" width="1200" height="630" viewBox="0 0 1200 630"><rect width="1200" height="630" fill="#ffffff"/><text x="600" y="64" text-anchor="middle" font-family="'Montserrat Bold', 'Montserrat', 'DejaVu Sans', Helvetica, Arial, sans-serif" font-size="18" font-weight="700" fill="#156988" letter-spacing="7">HOTEL LBI</text><text x="600" y="124" text-anchor="middle" font-family="'Prata', 'DejaVu Serif', Georgia, serif" font-size="56" fill="#1f1f1f">Long Beach Island Forecast</text><text x="600" y="156" text-anchor="middle" font-family="'Montserrat', 'DejaVu Sans', Helvetica, Arial, sans-serif" font-size="17" font-weight="500" fill="#404040" letter-spacing="1.2">Updated Wednesday, June 10, 2026 · 10:33 AM · Ship Bottom, NJ</text><line x1="60" y1="184" x2="1140" y2="184" stroke="#d8d8d8" stroke-width="1"/><line x1="60" y1="200" x2="1140" y2="200" stroke="#156988" stroke-width="3"/><text x="120" y="340" font-family="'Prata', 'DejaVu Serif', Georgia, serif" font-size="140" fill="#1f1f1f">65</text><text x="320" y="260" font-family="'Prata', 'DejaVu Serif', Georgia, serif" font-size="44" fill="#156988">°F</text><text x="120" y="362" font-family="'Montserrat Bold', 'Montserrat', 'DejaVu Sans', Helvetica, Arial, sans-serif" font-size="20" font-weight="700" fill="#156988" letter-spacing="4.5">PARTLY CLOUDY</text><g transform="translate(960,240) scale(2.03125)"><circle cx="22" cy="22" r="9" fill="#156988" opacity="0.95"/><g stroke="#156988" stroke-width="2.4" stroke-linecap="round"><line x1="22" y1="6" x2="22" y2="11"/><line x1="6" y1="22" x2="11" y2="22"/><line x1="11" y1="11" x2="14" y2="14"/><line x1="33" y1="11" x2="30" y2="14"/></g><path d="M26 46 Q17 46 17 38 Q17 30 26 30 Q28 22 37 22 Q47 22 48 32 Q56 33 56 40 Q56 46 48 46 Z" fill="#156988" opacity="0.18"/><path d="M26 46 Q17 46 17 38 Q17 30 26 30 Q28 22 37 22 Q47 22 48 32 Q56 33 56 40 Q56 46 48 46 Z" fill="none" stroke="#156988" stroke-width="2.4" stroke-linejoin="round"/></g><line x1="60" y1="388" x2="1140" y2="388" stroke="#d8d8d8" stroke-width="1"/><text x="150" y="412" text-anchor="middle" font-family="'Montserrat Bold', 'Montserrat', 'DejaVu Sans', Helvetica, Arial, sans-serif" font-size="15" font-weight="700" fill="#404040" letter-spacing="3.5">FEELS LIKE</text><text x="150" y="452" text-anchor="middle" font-family="'Prata', 'DejaVu Serif', Georgia, serif" font-size="32" fill="#1f1f1f">65°</text><text x="330" y="412" text-anchor="middle" font-family="'Montserrat Bold', 'Montserrat', 'DejaVu Sans', Helvetica, Arial, sans-serif" font-size="15" font-weight="700" fill="#404040" letter-spacing="3.5">HUMIDITY</text><text x="330" y="452" text-anchor="middle" font-family="'Prata', 'DejaVu Serif', Georgia, serif" font-size="32" fill="#1f1f1f">97%</text><text x="510" y="412" text-anchor="middle" font-family="'Montserrat Bold', 'Montserrat', 'DejaVu Sans', Helvetica, Arial, sans-serif" font-size="15" font-weight="700" fill="#404040" letter-spacing="3.5">WIND</text><text x="510" y="452" text-anchor="middle" font-family="'Prata', 'DejaVu Serif', Georgia, serif" font-size="32" fill="#1f1f1f">15 mph</text><text x="690" y="412" text-anchor="middle" font-family="'Montserrat Bold', 'Montserrat', 'DejaVu Sans', Helvetica, Arial, sans-serif" font-size="15" font-weight="700" fill="#404040" letter-spacing="3.5">UV INDEX</text><text x="690" y="452" text-anchor="middle" font-family="'Prata', 'DejaVu Serif', Georgia, serif" font-size="32" fill="#1f1f1f">5.8</text><text x="870" y="412" text-anchor="middle" font-family="'Montserrat Bold', 'Montserrat', 'DejaVu Sans', Helvetica, Arial, sans-serif" font-size="15" font-weight="700" fill="#404040" letter-spacing="3.5">SUNRISE</text><text x="870" y="452" text-anchor="middle" font-family="'Prata', 'DejaVu Serif', Georgia, serif" font-size="32" fill="#1f1f1f">5:28 AM</text><text x="1050" y="412" text-anchor="middle" font-family="'Montserrat Bold', 'Montserrat', 'DejaVu Sans', Helvetica, Arial, sans-serif" font-size="15" font-weight="700" fill="#404040" letter-spacing="3.5">SUNSET</text><text x="1050" y="452" text-anchor="middle" font-family="'Prata', 'DejaVu Serif', Georgia, serif" font-size="32" fill="#1f1f1f">8:23 PM</text><text x="600" y="500" text-anchor="middle" font-family="'Montserrat Bold', 'Montserrat', 'DejaVu Sans', Helvetica, Arial, sans-serif" font-size="15" font-weight="700" fill="#156988" letter-spacing="5">SEVEN DAY OUTLOOK</text><text x="137.14285714285714" y="538" text-anchor="middle" font-family="'Montserrat Bold', 'Montserrat', 'DejaVu Sans', Helvetica, Arial, sans-serif" font-size="16" font-weight="700" fill="#404040" letter-spacing="3">WED</text><g transform="translate(115.14285714285714,548) scale(0.6875)"><path d="M20 42 Q10 42 10 33 Q10 24 20 24 Q22 14 33 14 Q45 14 46 26 Q55 27 55 35 Q55 42 46 42 Z" fill="#156988" opacity="0.18"/><path d="M20 42 Q10 42 10 33 Q10 24 20 24 Q22 14 33 14 Q45 14 46 26 Q55 27 55 35 Q55 42 46 42 Z" fill="none" stroke="#156988" stroke-width="2.4" stroke-linejoin="round"/><g stroke="#156988" stroke-width="2.4" stroke-linecap="round" opacity="0.8"><line x1="10" y1="36" x2="54" y2="36"/><line x1="14" y1="44" x2="50" y2="44"/><line x1="18" y1="52" x2="46" y2="52"/></g></g><text x="137.14285714285714" y="612" text-anchor="middle" font-family="'Prata', 'DejaVu Serif', Georgia, serif" font-size="24" fill="#1f1f1f">67°</text><text x="291.42857142857144" y="538" text-anchor="middle" font-family="'Montserrat Bold', 'Montserrat', 'DejaVu Sans', Helvetica, Arial, sans-serif" font-size="16" font-weight="700" fill="#404040" letter-spacing="3">THU</text><g transform="translate(269.42857142857144,548) scale(0.6875)"><path d="M20 42 Q10 42 10 33 Q10 24 20 24 Q22 14 33 14 Q45 14 46 26 Q55 27 55 35 Q55 42 46 42 Z" fill="#156988" opacity="0.18"/><path d="M20 42 Q10 42 10 33 Q10 24 20 24 Q22 14 33 14 Q45 14 46 26 Q55 27 55 35 Q55 42 46 42 Z" fill="none" stroke="#156988" stroke-width="2.4" stroke-linejoin="round"/><g stroke="#156988" stroke-width="2.4" stroke-linecap="round" opacity="0.8"><line x1="10" y1="36" x2="54" y2="36"/><line x1="14" y1="44" x2="50" y2="44"/><line x1="18" y1="52" x2="46" y2="52"/></g></g><text x="291.42857142857144" y="612" text-anchor="middle" font-family="'Prata', 'DejaVu Serif', Georgia, serif" font-size="24" fill="#1f1f1f">78°</text><text x="445.71428571428567" y="538" text-anchor="middle" font-family="'Montserrat Bold', 'Montserrat', 'DejaVu Sans', Helvetica, Arial, sans-serif" font-size="16" font-weight="700" fill="#404040" letter-spacing="3">FRI</text><g transform="translate(423.71428571428567,548) scale(0.6875)"><path d="M20 42 Q10 42 10 33 Q10 24 20 24 Q22 14 33 14 Q45 14 46 26 Q55 27 55 35 Q55 42 46 42 Z" fill="#156988" opacity="0.18"/><path d="M20 42 Q10 42 10 33 Q10 24 20 24 Q22 14 33 14 Q45 14 46 26 Q55 27 55 35 Q55 42 46 42 Z" fill="none" stroke="#156988" stroke-width="2.4" stroke-linejoin="round"/><g stroke="#2C95B3" stroke-width="2.4" stroke-linecap="round"><line x1="22" y1="48" x2="19" y2="56"/><line x1="32" y1="48" x2="29" y2="56"/><line x1="42" y1="48" x2="39" y2="56"/></g></g><text x="445.71428571428567" y="612" text-anchor="middle" font-family="'Prata', 'DejaVu Serif', Georgia, serif" font-size="24" fill="#1f1f1f">83°</text><text x="600" y="538" text-anchor="middle" font-family="'Montserrat Bold', 'Montserrat', 'DejaVu Sans', Helvetica, Arial, sans-serif" font-size="16" font-weight="700" fill="#404040" letter-spacing="3">SAT</text><g transform="translate(578,548) scale(0.6875)"><path d="M20 42 Q10 42 10 33 Q10 24 20 24 Q22 14 33 14 Q45 14 46 26 Q55 27 55 35 Q55 42 46 42 Z" fill="#156988" opacity="0.18"/><path d="M20 42 Q10 42 10 33 Q10 24 20 24 Q22 14 33 14 Q45 14 46 26 Q55 27 55 35 Q55 42 46 42 Z" fill="none" stroke="#156988" stroke-width="2.4" stroke-linejoin="round"/><g stroke="#2C95B3" stroke-width="2.4" stroke-linecap="round"><line x1="22" y1="48" x2="19" y2="56"/><line x1="32" y1="48" x2="29" y2="56"/><line x1="42" y1="48" x2="39" y2="56"/></g></g><text x="600" y="612" text-anchor="middle" font-family="'Prata', 'DejaVu Serif', Georgia, serif" font-size="24" fill="#1f1f1f">80°</text><text x="754.2857142857142" y="538" text-anchor="middle" font-family="'Montserrat Bold', 'Montserrat', 'DejaVu Sans', Helvetica, Arial, sans-serif" font-size="16" font-weight="700" fill="#404040" letter-spacing="3">SUN</text><g transform="translate(732.2857142857142,548) scale(0.6875)"><path d="M20 42 Q10 42 10 33 Q10 24 20 24 Q22 14 33 14 Q45 14 46 26 Q55 27 55 35 Q55 42 46 42 Z" fill="#156988" opacity="0.18"/><path d="M20 42 Q10 42 10 33 Q10 24 20 24 Q22 14 33 14 Q45 14 46 26 Q55 27 55 35 Q55 42 46 42 Z" fill="none" stroke="#156988" stroke-width="2.4" stroke-linejoin="round"/><g stroke="#2C95B3" stroke-width="2.4" stroke-linecap="round"><line x1="22" y1="48" x2="19" y2="56"/><line x1="32" y1="48" x2="29" y2="56"/><line x1="42" y1="48" x2="39" y2="56"/></g></g><text x="754.2857142857142" y="612" text-anchor="middle" font-family="'Prata', 'DejaVu Serif', Georgia, serif" font-size="24" fill="#1f1f1f">77°</text><text x="908.5714285714284" y="538" text-anchor="middle" font-family="'Montserrat Bold', 'Montserrat', 'DejaVu Sans', Helvetica, Arial, sans-serif" font-size="16" font-weight="700" fill="#404040" letter-spacing="3">MON</text><g transform="translate(886.5714285714284,548) scale(0.6875)"><path d="M20 42 Q10 42 10 33 Q10 24 20 24 Q22 14 33 14 Q45 14 46 26 Q55 27 55 35 Q55 42 46 42 Z" fill="#156988" opacity="0.18"/><path d="M20 42 Q10 42 10 33 Q10 24 20 24 Q22 14 33 14 Q45 14 46 26 Q55 27 55 35 Q55 42 46 42 Z" fill="none" stroke="#156988" stroke-width="2.4" stroke-linejoin="round"/><g stroke="#2C95B3" stroke-width="2.4" stroke-linecap="round"><line x1="22" y1="48" x2="19" y2="56"/><line x1="32" y1="48" x2="29" y2="56"/><line x1="42" y1="48" x2="39" y2="56"/></g></g><text x="908.5714285714284" y="612" text-anchor="middle" font-family="'Prata', 'DejaVu Serif', Georgia, serif" font-size="24" fill="#1f1f1f">71°</text><text x="1062.857142857143" y="538" text-anchor="middle" font-family="'Montserrat Bold', 'Montserrat', 'DejaVu Sans', Helvetica, Arial, sans-serif" font-size="16" font-weight="700" fill="#404040" letter-spacing="3">TUE</text><g transform="translate(1040.857142857143,548) scale(0.6875)"><path d="M20 42 Q10 42 10 33 Q10 24 20 24 Q22 14 33 14 Q45 14 46 26 Q55 27 55 35 Q55 42 46 42 Z" fill="#156988" opacity="0.18"/><path d="M20 42 Q10 42 10 33 Q10 24 20 24 Q22 14 33 14 Q45 14 46 26 Q55 27 55 35 Q55 42 46 42 Z" fill="none" stroke="#156988" stroke-width="2.4" stroke-linejoin="round"/><g stroke="#2C95B3" stroke-width="2.4" stroke-linecap="round"><line x1="22" y1="48" x2="19" y2="56"/><line x1="32" y1="48" x2="29" y2="56"/><line x1="42" y1="48" x2="39" y2="56"/></g></g><text x="1062.857142857143" y="612" text-anchor="middle" font-family="'Prata', 'DejaVu Serif', Georgia, serif" font-size="24" fill="#1f1f1f">70°</text></svg>