<svg xmlns="http://www.w3.org/2000/svg" width="1200" height="630" viewBox="0 0 1200 630"><rect width="1200" height="630" fill="#ffffff"/><text x="600" y="64" text-anchor="middle" font-family="'Montserrat Bold', 'Montserrat', 'DejaVu Sans', Helvetica, Arial, sans-serif" font-size="18" font-weight="700" fill="#156988" letter-spacing="7">HOTEL LBI</text><text x="600" y="124" text-anchor="middle" font-family="'Prata', 'DejaVu Serif', Georgia, serif" font-size="56" fill="#1f1f1f">Long Beach Island Forecast</text><text x="600" y="156" text-anchor="middle" font-family="'Montserrat', 'DejaVu Sans', Helvetica, Arial, sans-serif" font-size="17" font-weight="500" fill="#404040" letter-spacing="1.2">Updated Saturday, June 13, 2026 · 5:57 PM · Ship Bottom, NJ</text><line x1="60" y1="184" x2="1140" y2="184" stroke="#d8d8d8" stroke-width="1"/><line x1="60" y1="200" x2="1140" y2="200" stroke="#156988" stroke-width="3"/><text x="120" y="340" font-family="'Prata', 'DejaVu Serif', Georgia, serif" font-size="140" fill="#1f1f1f">68</text><text x="320" y="260" font-family="'Prata', 'DejaVu Serif', Georgia, serif" font-size="44" fill="#156988">°F</text><text x="120" y="362" font-family="'Montserrat Bold', 'Montserrat', 'DejaVu Sans', Helvetica, Arial, sans-serif" font-size="20" font-weight="700" fill="#156988" letter-spacing="4.5">CLEAR SKY</text><g transform="translate(960,240) scale(2.03125)"><circle cx="32" cy="32" r="11" fill="#156988" opacity="0.95"/><g stroke="#156988" stroke-width="2.4" stroke-linecap="round"><line x1="32" y1="6" x2="32" y2="14"/><line x1="32" y1="50" x2="32" y2="58"/><line x1="6" y1="32" x2="14" y2="32"/><line x1="50" y1="32" x2="58" y2="32"/><line x1="13" y1="13" x2="19" y2="19"/><line x1="45" y1="45" x2="51" y2="51"/><line x1="13" y1="51" x2="19" y2="45"/><line x1="45" y1="19" x2="51" y2="13"/></g></g><line x1="60" y1="388" x2="1140" y2="388" stroke="#d8d8d8" stroke-width="1"/><text x="150" y="412" text-anchor="middle" font-family="'Montserrat Bold', 'Montserrat', 'DejaVu Sans', Helvetica, Arial, sans-serif" font-size="15" font-weight="700" fill="#404040" letter-spacing="3.5">FEELS LIKE</text><text x="150" y="452" text-anchor="middle" font-family="'Prata', 'DejaVu Serif', Georgia, serif" font-size="32" fill="#1f1f1f">65°</text><text x="330" y="412" text-anchor="middle" font-family="'Montserrat Bold', 'Montserrat', 'DejaVu Sans', Helvetica, Arial, sans-serif" font-size="15" font-weight="700" fill="#404040" letter-spacing="3.5">HUMIDITY</text><text x="330" y="452" text-anchor="middle" font-family="'Prata', 'DejaVu Serif', Georgia, serif" font-size="32" fill="#1f1f1f">82%</text><text x="510" y="412" text-anchor="middle" font-family="'Montserrat Bold', 'Montserrat', 'DejaVu Sans', Helvetica, Arial, sans-serif" font-size="15" font-weight="700" fill="#404040" letter-spacing="3.5">WIND</text><text x="510" y="452" text-anchor="middle" font-family="'Prata', 'DejaVu Serif', Georgia, serif" font-size="32" fill="#1f1f1f">16 mph</text><text x="690" y="412" text-anchor="middle" font-family="'Montserrat Bold', 'Montserrat', 'DejaVu Sans', Helvetica, Arial, sans-serif" font-size="15" font-weight="700" fill="#404040" letter-spacing="3.5">UV INDEX</text><text x="690" y="452" text-anchor="middle" font-family="'Prata', 'DejaVu Serif', Georgia, serif" font-size="32" fill="#1f1f1f">0.0</text><text x="870" y="412" text-anchor="middle" font-family="'Montserrat Bold', 'Montserrat', 'DejaVu Sans', Helvetica, Arial, sans-serif" font-size="15" font-weight="700" fill="#404040" letter-spacing="3.5">SUNRISE</text><text x="870" y="452" text-anchor="middle" font-family="'Prata', 'DejaVu Serif', Georgia, serif" font-size="32" fill="#1f1f1f">5:28 AM</text><text x="1050" y="412" text-anchor="middle" font-family="'Montserrat Bold', 'Montserrat', 'DejaVu Sans', Helvetica, Arial, sans-serif" font-size="15" font-weight="700" fill="#404040" letter-spacing="3.5">SUNSET</text><text x="1050" y="452" text-anchor="middle" font-family="'Prata', 'DejaVu Serif', Georgia, serif" font-size="32" fill="#1f1f1f">8:25 PM</text><text x="600" y="500" text-anchor="middle" font-family="'Montserrat Bold', 'Montserrat', 'DejaVu Sans', Helvetica, Arial, sans-serif" font-size="15" font-weight="700" fill="#156988" letter-spacing="5">SEVEN DAY OUTLOOK</text><text x="137.14285714285714" y="538" text-anchor="middle" font-family="'Montserrat Bold', 'Montserrat', 'DejaVu Sans', Helvetica, Arial, sans-serif" font-size="16" font-weight="700" fill="#404040" letter-spacing="3">SAT</text><g transform="translate(115.14285714285714,548) scale(0.6875)"><path d="M20 42 Q10 42 10 33 Q10 24 20 24 Q22 14 33 14 Q45 14 46 26 Q55 27 55 35 Q55 42 46 42 Z" fill="#156988" opacity="0.18"/><path d="M20 42 Q10 42 10 33 Q10 24 20 24 Q22 14 33 14 Q45 14 46 26 Q55 27 55 35 Q55 42 46 42 Z" fill="none" stroke="#156988" stroke-width="2.4" stroke-linejoin="round"/></g><text x="137.14285714285714" y="612" text-anchor="middle" font-family="'Prata', 'DejaVu Serif', Georgia, serif" font-size="24" fill="#1f1f1f">74°</text><text x="291.42857142857144" y="538" text-anchor="middle" font-family="'Montserrat Bold', 'Montserrat', 'DejaVu Sans', Helvetica, Arial, sans-serif" font-size="16" font-weight="700" fill="#404040" letter-spacing="3">SUN</text><g transform="translate(269.42857142857144,548) scale(0.6875)"><path d="M20 42 Q10 42 10 33 Q10 24 20 24 Q22 14 33 14 Q45 14 46 26 Q55 27 55 35 Q55 42 46 42 Z" fill="#156988" opacity="0.18"/><path d="M20 42 Q10 42 10 33 Q10 24 20 24 Q22 14 33 14 Q45 14 46 26 Q55 27 55 35 Q55 42 46 42 Z" fill="none" stroke="#156988" stroke-width="2.4" stroke-linejoin="round"/><g stroke="#2C95B3" stroke-width="2.4" stroke-linecap="round"><line x1="22" y1="48" x2="19" y2="56"/><line x1="32" y1="48" x2="29" y2="56"/><line x1="42" y1="48" x2="39" y2="56"/></g></g><text x="291.42857142857144" y="612" text-anchor="middle" font-family="'Prata', 'DejaVu Serif', Georgia, serif" font-size="24" fill="#1f1f1f">69°</text><text x="445.71428571428567" y="538" text-anchor="middle" font-family="'Montserrat Bold', 'Montserrat', 'DejaVu Sans', Helvetica, Arial, sans-serif" font-size="16" font-weight="700" fill="#404040" letter-spacing="3">MON</text><g transform="translate(423.71428571428567,548) scale(0.6875)"><path d="M20 42 Q10 42 10 33 Q10 24 20 24 Q22 14 33 14 Q45 14 46 26 Q55 27 55 35 Q55 42 46 42 Z" fill="#156988" opacity="0.18"/><path d="M20 42 Q10 42 10 33 Q10 24 20 24 Q22 14 33 14 Q45 14 46 26 Q55 27 55 35 Q55 42 46 42 Z" fill="none" stroke="#156988" stroke-width="2.4" stroke-linejoin="round"/><g stroke="#2C95B3" stroke-width="2.4" stroke-linecap="round"><line x1="22" y1="48" x2="19" y2="56"/><line x1="32" y1="48" x2="29" y2="56"/><line x1="42" y1="48" x2="39" y2="56"/></g></g><text x="445.71428571428567" y="612" text-anchor="middle" font-family="'Prata', 'DejaVu Serif', Georgia, serif" font-size="24" fill="#1f1f1f">76°</text><text x="600" y="538" text-anchor="middle" font-family="'Montserrat Bold', 'Montserrat', 'DejaVu Sans', Helvetica, Arial, sans-serif" font-size="16" font-weight="700" fill="#404040" letter-spacing="3">TUE</text><g transform="translate(578,548) scale(0.6875)"><path d="M20 42 Q10 42 10 33 Q10 24 20 24 Q22 14 33 14 Q45 14 46 26 Q55 27 55 35 Q55 42 46 42 Z" fill="#156988" opacity="0.18"/><path d="M20 42 Q10 42 10 33 Q10 24 20 24 Q22 14 33 14 Q45 14 46 26 Q55 27 55 35 Q55 42 46 42 Z" fill="none" stroke="#156988" stroke-width="2.4" stroke-linejoin="round"/></g><text x="600" y="612" text-anchor="middle" font-family="'Prata', 'DejaVu Serif', Georgia, serif" font-size="24" fill="#1f1f1f">70°</text><text x="754.2857142857142" y="538" text-anchor="middle" font-family="'Montserrat Bold', 'Montserrat', 'DejaVu Sans', Helvetica, Arial, sans-serif" font-size="16" font-weight="700" fill="#404040" letter-spacing="3">WED</text><g transform="translate(732.2857142857142,548) scale(0.6875)"><path d="M20 42 Q10 42 10 33 Q10 24 20 24 Q22 14 33 14 Q45 14 46 26 Q55 27 55 35 Q55 42 46 42 Z" fill="#156988" opacity="0.18"/><path d="M20 42 Q10 42 10 33 Q10 24 20 24 Q22 14 33 14 Q45 14 46 26 Q55 27 55 35 Q55 42 46 42 Z" fill="none" stroke="#156988" stroke-width="2.4" stroke-linejoin="round"/><g stroke="#2C95B3" stroke-width="2.4" stroke-linecap="round"><line x1="22" y1="48" x2="19" y2="56"/><line x1="32" y1="48" x2="29" y2="56"/><line x1="42" y1="48" x2="39" y2="56"/></g></g><text x="754.2857142857142" y="612" text-anchor="middle" font-family="'Prata', 'DejaVu Serif', Georgia, serif" font-size="24" fill="#1f1f1f">72°</text><text x="908.5714285714284" y="538" text-anchor="middle" font-family="'Montserrat Bold', 'Montserrat', 'DejaVu Sans', Helvetica, Arial, sans-serif" font-size="16" font-weight="700" fill="#404040" letter-spacing="3">THU</text><g transform="translate(886.5714285714284,548) scale(0.6875)"><path d="M20 42 Q10 42 10 33 Q10 24 20 24 Q22 14 33 14 Q45 14 46 26 Q55 27 55 35 Q55 42 46 42 Z" fill="#156988" opacity="0.18"/><path d="M20 42 Q10 42 10 33 Q10 24 20 24 Q22 14 33 14 Q45 14 46 26 Q55 27 55 35 Q55 42 46 42 Z" fill="none" stroke="#156988" stroke-width="2.4" stroke-linejoin="round"/><g stroke="#2C95B3" stroke-width="2.4" stroke-linecap="round"><line x1="22" y1="48" x2="19" y2="56"/><line x1="32" y1="48" x2="29" y2="56"/><line x1="42" y1="48" x2="39" y2="56"/></g></g><text x="908.5714285714284" y="612" text-anchor="middle" font-family="'Prata', 'DejaVu Serif', Georgia, serif" font-size="24" fill="#1f1f1f">86°</text><text x="1062.857142857143" y="538" text-anchor="middle" font-family="'Montserrat Bold', 'Montserrat', 'DejaVu Sans', Helvetica, Arial, sans-serif" font-size="16" font-weight="700" fill="#404040" letter-spacing="3">FRI</text><g transform="translate(1040.857142857143,548) scale(0.6875)"><path d="M20 42 Q10 42 10 33 Q10 24 20 24 Q22 14 33 14 Q45 14 46 26 Q55 27 55 35 Q55 42 46 42 Z" fill="#156988" opacity="0.18"/><path d="M20 42 Q10 42 10 33 Q10 24 20 24 Q22 14 33 14 Q45 14 46 26 Q55 27 55 35 Q55 42 46 42 Z" fill="none" stroke="#156988" stroke-width="2.4" stroke-linejoin="round"/><g stroke="#2C95B3" stroke-width="2.4" stroke-linecap="round"><line x1="22" y1="48" x2="19" y2="56"/><line x1="32" y1="48" x2="29" y2="56"/><line x1="42" y1="48" x2="39" y2="56"/></g></g><text x="1062.857142857143" y="612" text-anchor="middle" font-family="'Prata', 'DejaVu Serif', Georgia, serif" font-size="24" fill="#1f1f1f">81°</text></svg>