<svg xmlns="http://www.w3.org/2000/svg" width="1200" height="630" viewBox="0 0 1200 630"><rect width="1200" height="630" fill="#ffffff"/><text x="600" y="64" text-anchor="middle" font-family="'Montserrat', 'DejaVu Sans', Helvetica, Arial, sans-serif" font-size="16" font-weight="500" fill="#156988" letter-spacing="6">HOTEL LBI</text><text x="600" y="120" text-anchor="middle" font-family="'Prata', 'DejaVu Serif', Georgia, serif" font-size="52" fill="#404040">Long Beach Island Forecast</text><text x="600" y="150" text-anchor="middle" font-family="'Montserrat', 'DejaVu Sans', Helvetica, Arial, sans-serif" font-size="15" fill="#6a6a6a" letter-spacing="1.2">Updated 7:50 AM · Ship Bottom, NJ</text><line x1="60" y1="180" x2="1140" y2="180" stroke="#e6e6e6" stroke-width="1"/><line x1="60" y1="210" x2="1140" y2="210" stroke="#156988" stroke-width="3"/><text x="120" y="320" font-family="'Prata', 'DejaVu Serif', Georgia, serif" font-size="140" fill="#404040">51</text><text x="320" y="240" font-family="'Prata', 'DejaVu Serif', Georgia, serif" font-size="44" fill="#156988">°F</text><text x="120" y="358" font-family="'Montserrat', 'DejaVu Sans', Helvetica, Arial, sans-serif" font-size="18" font-weight="500" fill="#156988" letter-spacing="4">CLEAR SKY</text><g transform="translate(960,220) scale(2.03125)"><circle cx="32" cy="32" r="11" fill="#156988" opacity="0.85"/><g stroke="#156988" stroke-width="2" stroke-linecap="round"><line x1="32" y1="6" x2="32" y2="14"/><line x1="32" y1="50" x2="32" y2="58"/><line x1="6" y1="32" x2="14" y2="32"/><line x1="50" y1="32" x2="58" y2="32"/><line x1="13" y1="13" x2="19" y2="19"/><line x1="45" y1="45" x2="51" y2="51"/><line x1="13" y1="51" x2="19" y2="45"/><line x1="45" y1="19" x2="51" y2="13"/></g></g><line x1="60" y1="350" x2="1140" y2="350" stroke="#e6e6e6" stroke-width="1"/><text x="150" y="380" text-anchor="middle" font-family="'Montserrat', 'DejaVu Sans', Helvetica, Arial, sans-serif" font-size="13" font-weight="500" fill="#6a6a6a" letter-spacing="3">FEELS LIKE</text><text x="150" y="420" text-anchor="middle" font-family="'Prata', 'DejaVu Serif', Georgia, serif" font-size="28" fill="#404040">44°</text><text x="330" y="380" text-anchor="middle" font-family="'Montserrat', 'DejaVu Sans', Helvetica, Arial, sans-serif" font-size="13" font-weight="500" fill="#6a6a6a" letter-spacing="3">HUMIDITY</text><text x="330" y="420" text-anchor="middle" font-family="'Prata', 'DejaVu Serif', Georgia, serif" font-size="28" fill="#404040">67%</text><text x="510" y="380" text-anchor="middle" font-family="'Montserrat', 'DejaVu Sans', Helvetica, Arial, sans-serif" font-size="13" font-weight="500" fill="#6a6a6a" letter-spacing="3">WIND</text><text x="510" y="420" text-anchor="middle" font-family="'Prata', 'DejaVu Serif', Georgia, serif" font-size="28" fill="#404040">11 mph</text><text x="690" y="380" text-anchor="middle" font-family="'Montserrat', 'DejaVu Sans', Helvetica, Arial, sans-serif" font-size="13" font-weight="500" fill="#6a6a6a" letter-spacing="3">UV INDEX</text><text x="690" y="420" text-anchor="middle" font-family="'Prata', 'DejaVu Serif', Georgia, serif" font-size="28" fill="#404040">5.7</text><text x="870" y="380" text-anchor="middle" font-family="'Montserrat', 'DejaVu Sans', Helvetica, Arial, sans-serif" font-size="13" font-weight="500" fill="#6a6a6a" letter-spacing="3">SUNRISE</text><text x="870" y="420" text-anchor="middle" font-family="'Prata', 'DejaVu Serif', Georgia, serif" font-size="28" fill="#404040">5:49 AM</text><text x="1050" y="380" text-anchor="middle" font-family="'Montserrat', 'DejaVu Sans', Helvetica, Arial, sans-serif" font-size="13" font-weight="500" fill="#6a6a6a" letter-spacing="3">SUNSET</text><text x="1050" y="420" text-anchor="middle" font-family="'Prata', 'DejaVu Serif', Georgia, serif" font-size="28" fill="#404040">7:57 PM</text><text x="600" y="500" text-anchor="middle" font-family="'Montserrat', 'DejaVu Sans', Helvetica, Arial, sans-serif" font-size="13" font-weight="500" fill="#156988" letter-spacing="4">SEVEN DAY OUTLOOK</text><text x="137.14285714285714" y="538" text-anchor="middle" font-family="'Montserrat', 'DejaVu Sans', Helvetica, Arial, sans-serif" font-size="14" font-weight="500" fill="#6a6a6a" letter-spacing="2.4">FRI</text><g transform="translate(115.14285714285714,548) scale(0.6875)"><path d="M20 42 Q10 42 10 33 Q10 24 20 24 Q22 14 33 14 Q45 14 46 26 Q55 27 55 35 Q55 42 46 42 Z" fill="#156988" opacity="0.12"/><path d="M20 42 Q10 42 10 33 Q10 24 20 24 Q22 14 33 14 Q45 14 46 26 Q55 27 55 35 Q55 42 46 42 Z" fill="none" stroke="#156988" stroke-width="2" stroke-linejoin="round"/></g><text x="137.14285714285714" y="612" text-anchor="middle" font-family="'Prata', 'DejaVu Serif', Georgia, serif" font-size="22" fill="#404040">56°</text><text x="291.42857142857144" y="538" text-anchor="middle" font-family="'Montserrat', 'DejaVu Sans', Helvetica, Arial, sans-serif" font-size="14" font-weight="500" fill="#6a6a6a" letter-spacing="2.4">SAT</text><g transform="translate(269.42857142857144,548) scale(0.6875)"><path d="M20 42 Q10 42 10 33 Q10 24 20 24 Q22 14 33 14 Q45 14 46 26 Q55 27 55 35 Q55 42 46 42 Z" fill="#156988" opacity="0.12"/><path d="M20 42 Q10 42 10 33 Q10 24 20 24 Q22 14 33 14 Q45 14 46 26 Q55 27 55 35 Q55 42 46 42 Z" fill="none" stroke="#156988" stroke-width="2" stroke-linejoin="round"/><g stroke="#2C95B3" stroke-width="2" stroke-linecap="round"><line x1="22" y1="48" x2="19" y2="56"/><line x1="32" y1="48" x2="29" y2="56"/><line x1="42" y1="48" x2="39" y2="56"/></g></g><text x="291.42857142857144" y="612" text-anchor="middle" font-family="'Prata', 'DejaVu Serif', Georgia, serif" font-size="22" fill="#404040">55°</text><text x="445.71428571428567" y="538" text-anchor="middle" font-family="'Montserrat', 'DejaVu Sans', Helvetica, Arial, sans-serif" font-size="14" font-weight="500" fill="#6a6a6a" letter-spacing="2.4">SUN</text><g transform="translate(423.71428571428567,548) scale(0.6875)"><path d="M20 42 Q10 42 10 33 Q10 24 20 24 Q22 14 33 14 Q45 14 46 26 Q55 27 55 35 Q55 42 46 42 Z" fill="#156988" opacity="0.12"/><path d="M20 42 Q10 42 10 33 Q10 24 20 24 Q22 14 33 14 Q45 14 46 26 Q55 27 55 35 Q55 42 46 42 Z" fill="none" stroke="#156988" stroke-width="2" stroke-linejoin="round"/><g stroke="#156988" stroke-width="2" stroke-linecap="round" opacity="0.7"><line x1="10" y1="36" x2="54" y2="36"/><line x1="14" y1="44" x2="50" y2="44"/><line x1="18" y1="52" x2="46" y2="52"/></g></g><text x="445.71428571428567" y="612" text-anchor="middle" font-family="'Prata', 'DejaVu Serif', Georgia, serif" font-size="22" fill="#404040">65°</text><text x="600" y="538" text-anchor="middle" font-family="'Montserrat', 'DejaVu Sans', Helvetica, Arial, sans-serif" font-size="14" font-weight="500" fill="#6a6a6a" letter-spacing="2.4">MON</text><g transform="translate(578,548) scale(0.6875)"><path d="M20 42 Q10 42 10 33 Q10 24 20 24 Q22 14 33 14 Q45 14 46 26 Q55 27 55 35 Q55 42 46 42 Z" fill="#156988" opacity="0.12"/><path d="M20 42 Q10 42 10 33 Q10 24 20 24 Q22 14 33 14 Q45 14 46 26 Q55 27 55 35 Q55 42 46 42 Z" fill="none" stroke="#156988" stroke-width="2" stroke-linejoin="round"/><g stroke="#2C95B3" stroke-width="2" stroke-linecap="round"><line x1="22" y1="48" x2="19" y2="56"/><line x1="32" y1="48" x2="29" y2="56"/><line x1="42" y1="48" x2="39" y2="56"/></g></g><text x="600" y="612" text-anchor="middle" font-family="'Prata', 'DejaVu Serif', Georgia, serif" font-size="22" fill="#404040">59°</text><text x="754.2857142857142" y="538" text-anchor="middle" font-family="'Montserrat', 'DejaVu Sans', Helvetica, Arial, sans-serif" font-size="14" font-weight="500" fill="#6a6a6a" letter-spacing="2.4">TUE</text><g transform="translate(732.2857142857142,548) scale(0.6875)"><path d="M20 42 Q10 42 10 33 Q10 24 20 24 Q22 14 33 14 Q45 14 46 26 Q55 27 55 35 Q55 42 46 42 Z" fill="#156988" opacity="0.12"/><path d="M20 42 Q10 42 10 33 Q10 24 20 24 Q22 14 33 14 Q45 14 46 26 Q55 27 55 35 Q55 42 46 42 Z" fill="none" stroke="#156988" stroke-width="2" stroke-linejoin="round"/></g><text x="754.2857142857142" y="612" text-anchor="middle" font-family="'Prata', 'DejaVu Serif', Georgia, serif" font-size="22" fill="#404040">60°</text><text x="908.5714285714284" y="538" text-anchor="middle" font-family="'Montserrat', 'DejaVu Sans', Helvetica, Arial, sans-serif" font-size="14" font-weight="500" fill="#6a6a6a" letter-spacing="2.4">WED</text><g transform="translate(886.5714285714284,548) scale(0.6875)"><path d="M20 42 Q10 42 10 33 Q10 24 20 24 Q22 14 33 14 Q45 14 46 26 Q55 27 55 35 Q55 42 46 42 Z" fill="#156988" opacity="0.12"/><path d="M20 42 Q10 42 10 33 Q10 24 20 24 Q22 14 33 14 Q45 14 46 26 Q55 27 55 35 Q55 42 46 42 Z" fill="none" stroke="#156988" stroke-width="2" stroke-linejoin="round"/><g stroke="#2C95B3" stroke-width="2" stroke-linecap="round"><line x1="22" y1="48" x2="19" y2="56"/><line x1="32" y1="48" x2="29" y2="56"/><line x1="42" y1="48" x2="39" y2="56"/></g></g><text x="908.5714285714284" y="612" text-anchor="middle" font-family="'Prata', 'DejaVu Serif', Georgia, serif" font-size="22" fill="#404040">58°</text><text x="1062.857142857143" y="538" text-anchor="middle" font-family="'Montserrat', 'DejaVu Sans', Helvetica, Arial, sans-serif" font-size="14" font-weight="500" fill="#6a6a6a" letter-spacing="2.4">THU</text><g transform="translate(1040.857142857143,548) scale(0.6875)"><path d="M20 42 Q10 42 10 33 Q10 24 20 24 Q22 14 33 14 Q45 14 46 26 Q55 27 55 35 Q55 42 46 42 Z" fill="#156988" opacity="0.12"/><path d="M20 42 Q10 42 10 33 Q10 24 20 24 Q22 14 33 14 Q45 14 46 26 Q55 27 55 35 Q55 42 46 42 Z" fill="none" stroke="#156988" stroke-width="2" stroke-linejoin="round"/><g stroke="#2C95B3" stroke-width="2" stroke-linecap="round"><line x1="22" y1="48" x2="19" y2="56"/><line x1="32" y1="48" x2="29" y2="56"/><line x1="42" y1="48" x2="39" y2="56"/></g></g><text x="1062.857142857143" y="612" text-anchor="middle" font-family="'Prata', 'DejaVu Serif', Georgia, serif" font-size="22" fill="#404040">64°</text></svg>